<mxfile host="Electron" agent="Mozilla/5.0 (X11; Linux x86_64) AppleWebKit/537.36 (KHTML, like Gecko) draw.io/28.1.2 Chrome/138.0.7204.243 Electron/37.4.0 Safari/537.36" version="28.1.2">
  <diagram name="Страница — 1" id="pvLCgDvUEGHkcaz4u9Yu">
    <mxGraphModel dx="1753" dy="895" grid="1" gridSize="10" guides="1" tooltips="1" connect="1" arrows="1" fold="1" page="1" pageScale="1" pageWidth="1169" pageHeight="827" math="0" shadow="0">
      <root>
        <mxCell id="0" />
        <mxCell id="1" parent="0" />
        <mxCell id="lrAz5Elh-llLouG3XHdg-29" value="" style="endArrow=none;html=1;rounded=0;" parent="1" edge="1">
          <mxGeometry width="50" height="50" relative="1" as="geometry">
            <mxPoint x="865" y="230" as="sourcePoint" />
            <mxPoint x="864.76" y="180" as="targetPoint" />
          </mxGeometry>
        </mxCell>
        <mxCell id="lrAz5Elh-llLouG3XHdg-30" value="" style="ellipse;whiteSpace=wrap;html=1;" parent="1" vertex="1">
          <mxGeometry x="850" y="230" width="30" height="30" as="geometry" />
        </mxCell>
        <mxCell id="lrAz5Elh-llLouG3XHdg-31" value="" style="endArrow=none;html=1;rounded=0;entryX=1;entryY=0;entryDx=0;entryDy=0;exitX=0;exitY=1;exitDx=0;exitDy=0;" parent="1" source="lrAz5Elh-llLouG3XHdg-30" target="lrAz5Elh-llLouG3XHdg-30" edge="1">
          <mxGeometry width="50" height="50" relative="1" as="geometry">
            <mxPoint x="840" y="270" as="sourcePoint" />
            <mxPoint x="890" y="220" as="targetPoint" />
            <Array as="points" />
          </mxGeometry>
        </mxCell>
        <mxCell id="lrAz5Elh-llLouG3XHdg-32" value="" style="endArrow=none;html=1;rounded=0;exitX=1;exitY=1;exitDx=0;exitDy=0;entryX=0;entryY=0;entryDx=0;entryDy=0;" parent="1" source="lrAz5Elh-llLouG3XHdg-30" target="lrAz5Elh-llLouG3XHdg-30" edge="1">
          <mxGeometry width="50" height="50" relative="1" as="geometry">
            <mxPoint x="880" y="260" as="sourcePoint" />
            <mxPoint x="837.5" y="220" as="targetPoint" />
          </mxGeometry>
        </mxCell>
        <mxCell id="lrAz5Elh-llLouG3XHdg-33" value="" style="endArrow=none;html=1;rounded=0;" parent="1" edge="1">
          <mxGeometry width="50" height="50" relative="1" as="geometry">
            <mxPoint x="850" y="260" as="sourcePoint" />
            <mxPoint x="880" y="260" as="targetPoint" />
            <Array as="points" />
          </mxGeometry>
        </mxCell>
        <mxCell id="lrAz5Elh-llLouG3XHdg-34" value="" style="endArrow=none;html=1;rounded=0;" parent="1" edge="1">
          <mxGeometry width="50" height="50" relative="1" as="geometry">
            <mxPoint x="864.76" y="290" as="sourcePoint" />
            <mxPoint x="864.76" y="260" as="targetPoint" />
            <Array as="points" />
          </mxGeometry>
        </mxCell>
        <mxCell id="lrAz5Elh-llLouG3XHdg-35" value="" style="endArrow=none;html=1;rounded=0;" parent="1" edge="1">
          <mxGeometry width="50" height="50" relative="1" as="geometry">
            <mxPoint x="750" y="290" as="sourcePoint" />
            <mxPoint x="970" y="290" as="targetPoint" />
          </mxGeometry>
        </mxCell>
        <mxCell id="lrAz5Elh-llLouG3XHdg-36" value="" style="endArrow=none;html=1;rounded=0;" parent="1" target="lrAz5Elh-llLouG3XHdg-37" edge="1">
          <mxGeometry width="50" height="50" relative="1" as="geometry">
            <mxPoint x="970" y="290" as="sourcePoint" />
            <mxPoint x="970" y="290" as="targetPoint" />
            <Array as="points">
              <mxPoint x="970" y="330" />
            </Array>
          </mxGeometry>
        </mxCell>
        <mxCell id="lrAz5Elh-llLouG3XHdg-37" value="TRAINER" style="swimlane;fontStyle=1;align=center;verticalAlign=top;childLayout=stackLayout;horizontal=1;startSize=26;horizontalStack=0;resizeParent=1;resizeParentMax=0;resizeLast=0;collapsible=1;marginBottom=0;whiteSpace=wrap;html=1;" parent="1" vertex="1">
          <mxGeometry x="890" y="330" width="160" height="120" as="geometry" />
        </mxCell>
        <mxCell id="lrAz5Elh-llLouG3XHdg-38" value="PassportNumber" style="text;strokeColor=none;fillColor=none;align=left;verticalAlign=top;spacingLeft=4;spacingRight=4;overflow=hidden;rotatable=0;points=[[0,0.5],[1,0.5]];portConstraint=eastwest;whiteSpace=wrap;html=1;" parent="lrAz5Elh-llLouG3XHdg-37" vertex="1">
          <mxGeometry y="26" width="160" height="26" as="geometry" />
        </mxCell>
        <mxCell id="lrAz5Elh-llLouG3XHdg-39" value="" style="line;strokeWidth=1;fillColor=none;align=left;verticalAlign=middle;spacingTop=-1;spacingLeft=3;spacingRight=3;rotatable=0;labelPosition=right;points=[];portConstraint=eastwest;strokeColor=inherit;" parent="lrAz5Elh-llLouG3XHdg-37" vertex="1">
          <mxGeometry y="52" width="160" height="8" as="geometry" />
        </mxCell>
        <mxCell id="lrAz5Elh-llLouG3XHdg-40" value="Specialization&lt;div&gt;HireDate&lt;/div&gt;&lt;div&gt;Certification&lt;br&gt;&lt;div&gt;&lt;br&gt;&lt;/div&gt;&lt;/div&gt;" style="text;align=left;verticalAlign=top;spacingLeft=4;spacingRight=4;overflow=hidden;rotatable=0;points=[[0,0.5],[1,0.5]];portConstraint=eastwest;whiteSpace=wrap;html=1;glass=0;" parent="lrAz5Elh-llLouG3XHdg-37" vertex="1">
          <mxGeometry y="60" width="160" height="60" as="geometry" />
        </mxCell>
        <mxCell id="lrAz5Elh-llLouG3XHdg-41" value="" style="endArrow=none;html=1;rounded=0;" parent="1" edge="1">
          <mxGeometry width="50" height="50" relative="1" as="geometry">
            <mxPoint x="750" y="290" as="sourcePoint" />
            <mxPoint x="750" y="309" as="targetPoint" />
          </mxGeometry>
        </mxCell>
        <mxCell id="lrAz5Elh-llLouG3XHdg-47" value="" style="endArrow=none;html=1;rounded=0;" parent="1" source="lrAz5Elh-llLouG3XHdg-190" edge="1">
          <mxGeometry width="50" height="50" relative="1" as="geometry">
            <mxPoint x="540" y="350" as="sourcePoint" />
            <mxPoint x="670" y="350" as="targetPoint" />
          </mxGeometry>
        </mxCell>
        <mxCell id="lrAz5Elh-llLouG3XHdg-51" value="" style="endArrow=none;dashed=1;html=1;rounded=0;" parent="1" source="lrAz5Elh-llLouG3XHdg-141" edge="1">
          <mxGeometry width="50" height="50" relative="1" as="geometry">
            <mxPoint x="970" y="540" as="sourcePoint" />
            <mxPoint x="970" y="450" as="targetPoint" />
          </mxGeometry>
        </mxCell>
        <mxCell id="lrAz5Elh-llLouG3XHdg-52" value="" style="endArrow=none;dashed=1;html=1;rounded=0;" parent="1" edge="1">
          <mxGeometry width="50" height="50" relative="1" as="geometry">
            <mxPoint x="930" y="540" as="sourcePoint" />
            <mxPoint x="970" y="540" as="targetPoint" />
          </mxGeometry>
        </mxCell>
        <mxCell id="lrAz5Elh-llLouG3XHdg-54" value="" style="endArrow=none;dashed=1;html=1;rounded=0;" parent="1" source="lrAz5Elh-llLouG3XHdg-123" edge="1">
          <mxGeometry width="50" height="50" relative="1" as="geometry">
            <mxPoint x="930" y="640" as="sourcePoint" />
            <mxPoint x="930" y="540" as="targetPoint" />
          </mxGeometry>
        </mxCell>
        <mxCell id="lrAz5Elh-llLouG3XHdg-55" value="WORKOUT" style="swimlane;fontStyle=1;align=center;verticalAlign=top;childLayout=stackLayout;horizontal=1;startSize=26;horizontalStack=0;resizeParent=1;resizeParentMax=0;resizeLast=0;collapsible=1;marginBottom=0;whiteSpace=wrap;html=1;" parent="1" vertex="1">
          <mxGeometry x="785" y="640" width="160" height="120" as="geometry" />
        </mxCell>
        <mxCell id="lrAz5Elh-llLouG3XHdg-56" value="Type&lt;div&gt;Date&lt;/div&gt;&lt;div&gt;Time&lt;/div&gt;" style="text;strokeColor=none;fillColor=none;align=left;verticalAlign=top;spacingLeft=4;spacingRight=4;overflow=hidden;rotatable=0;points=[[0,0.5],[1,0.5]];portConstraint=eastwest;whiteSpace=wrap;html=1;" parent="lrAz5Elh-llLouG3XHdg-55" vertex="1">
          <mxGeometry y="26" width="160" height="54" as="geometry" />
        </mxCell>
        <mxCell id="lrAz5Elh-llLouG3XHdg-57" value="" style="line;strokeWidth=1;fillColor=none;align=left;verticalAlign=middle;spacingTop=-1;spacingLeft=3;spacingRight=3;rotatable=0;labelPosition=right;points=[];portConstraint=eastwest;strokeColor=inherit;" parent="lrAz5Elh-llLouG3XHdg-55" vertex="1">
          <mxGeometry y="80" width="160" height="8" as="geometry" />
        </mxCell>
        <mxCell id="lrAz5Elh-llLouG3XHdg-58" value="DifficultyLevel" style="text;strokeColor=none;fillColor=none;align=left;verticalAlign=top;spacingLeft=4;spacingRight=4;overflow=hidden;rotatable=0;points=[[0,0.5],[1,0.5]];portConstraint=eastwest;whiteSpace=wrap;html=1;" parent="lrAz5Elh-llLouG3XHdg-55" vertex="1">
          <mxGeometry y="88" width="160" height="32" as="geometry" />
        </mxCell>
        <mxCell id="lrAz5Elh-llLouG3XHdg-60" value="" style="endArrow=none;dashed=1;html=1;rounded=0;" parent="1" source="lrAz5Elh-llLouG3XHdg-112" edge="1">
          <mxGeometry width="50" height="50" relative="1" as="geometry">
            <mxPoint x="800" y="640" as="sourcePoint" />
            <mxPoint x="800" y="399" as="targetPoint" />
          </mxGeometry>
        </mxCell>
        <mxCell id="lrAz5Elh-llLouG3XHdg-61" value="CLIENT" style="swimlane;fontStyle=1;align=center;verticalAlign=top;childLayout=stackLayout;horizontal=1;startSize=26;horizontalStack=0;resizeParent=1;resizeParentMax=0;resizeLast=0;collapsible=1;marginBottom=0;whiteSpace=wrap;html=1;" parent="1" vertex="1">
          <mxGeometry x="670" y="310" width="160" height="86" as="geometry" />
        </mxCell>
        <mxCell id="lrAz5Elh-llLouG3XHdg-62" value="PassportNumber" style="text;strokeColor=none;fillColor=none;align=left;verticalAlign=top;spacingLeft=4;spacingRight=4;overflow=hidden;rotatable=0;points=[[0,0.5],[1,0.5]];portConstraint=eastwest;whiteSpace=wrap;html=1;" parent="lrAz5Elh-llLouG3XHdg-61" vertex="1">
          <mxGeometry y="26" width="160" height="26" as="geometry" />
        </mxCell>
        <mxCell id="lrAz5Elh-llLouG3XHdg-63" value="" style="line;strokeWidth=1;fillColor=none;align=left;verticalAlign=middle;spacingTop=-1;spacingLeft=3;spacingRight=3;rotatable=0;labelPosition=right;points=[];portConstraint=eastwest;strokeColor=inherit;" parent="lrAz5Elh-llLouG3XHdg-61" vertex="1">
          <mxGeometry y="52" width="160" height="8" as="geometry" />
        </mxCell>
        <mxCell id="lrAz5Elh-llLouG3XHdg-64" value="MemberType" style="text;strokeColor=none;fillColor=none;align=left;verticalAlign=top;spacingLeft=4;spacingRight=4;overflow=hidden;rotatable=0;points=[[0,0.5],[1,0.5]];portConstraint=eastwest;whiteSpace=wrap;html=1;" parent="lrAz5Elh-llLouG3XHdg-61" vertex="1">
          <mxGeometry y="60" width="160" height="26" as="geometry" />
        </mxCell>
        <mxCell id="lrAz5Elh-llLouG3XHdg-65" value="PERSON" style="swimlane;fontStyle=1;align=center;verticalAlign=top;childLayout=stackLayout;horizontal=1;startSize=26;horizontalStack=0;resizeParent=1;resizeParentMax=0;resizeLast=0;collapsible=1;marginBottom=0;whiteSpace=wrap;html=1;" parent="1" vertex="1">
          <mxGeometry x="785" y="20" width="160" height="160" as="geometry" />
        </mxCell>
        <mxCell id="lrAz5Elh-llLouG3XHdg-66" value="PassporNumber" style="text;strokeColor=none;fillColor=none;align=left;verticalAlign=top;spacingLeft=4;spacingRight=4;overflow=hidden;rotatable=0;points=[[0,0.5],[1,0.5]];portConstraint=eastwest;whiteSpace=wrap;html=1;" parent="lrAz5Elh-llLouG3XHdg-65" vertex="1">
          <mxGeometry y="26" width="160" height="26" as="geometry" />
        </mxCell>
        <mxCell id="lrAz5Elh-llLouG3XHdg-67" value="" style="line;strokeWidth=1;fillColor=none;align=left;verticalAlign=middle;spacingTop=-1;spacingLeft=3;spacingRight=3;rotatable=0;labelPosition=right;points=[];portConstraint=eastwest;strokeColor=inherit;" parent="lrAz5Elh-llLouG3XHdg-65" vertex="1">
          <mxGeometry y="52" width="160" height="8" as="geometry" />
        </mxCell>
        <mxCell id="lrAz5Elh-llLouG3XHdg-68" value="FirstName&lt;div&gt;Surname&lt;/div&gt;&lt;div&gt;MiddleName&lt;/div&gt;&lt;div&gt;PhoneNumber&lt;/div&gt;&lt;div&gt;Email&lt;/div&gt;&lt;div&gt;BirthDate&lt;/div&gt;" style="text;strokeColor=none;fillColor=none;align=left;verticalAlign=top;spacingLeft=4;spacingRight=4;overflow=hidden;rotatable=0;points=[[0,0.5],[1,0.5]];portConstraint=eastwest;whiteSpace=wrap;html=1;" parent="lrAz5Elh-llLouG3XHdg-65" vertex="1">
          <mxGeometry y="60" width="160" height="100" as="geometry" />
        </mxCell>
        <mxCell id="lrAz5Elh-llLouG3XHdg-70" value="ROOM" style="swimlane;fontStyle=1;align=center;verticalAlign=top;childLayout=stackLayout;horizontal=1;startSize=26;horizontalStack=0;resizeParent=1;resizeParentMax=0;resizeLast=0;collapsible=1;marginBottom=0;whiteSpace=wrap;html=1;" parent="1" vertex="1">
          <mxGeometry x="350" y="640" width="160" height="120" as="geometry" />
        </mxCell>
        <mxCell id="lrAz5Elh-llLouG3XHdg-71" value="RoomName" style="text;strokeColor=none;fillColor=none;align=left;verticalAlign=top;spacingLeft=4;spacingRight=4;overflow=hidden;rotatable=0;points=[[0,0.5],[1,0.5]];portConstraint=eastwest;whiteSpace=wrap;html=1;" parent="lrAz5Elh-llLouG3XHdg-70" vertex="1">
          <mxGeometry y="26" width="160" height="26" as="geometry" />
        </mxCell>
        <mxCell id="lrAz5Elh-llLouG3XHdg-72" value="" style="line;strokeWidth=1;fillColor=none;align=left;verticalAlign=middle;spacingTop=-1;spacingLeft=3;spacingRight=3;rotatable=0;labelPosition=right;points=[];portConstraint=eastwest;strokeColor=inherit;" parent="lrAz5Elh-llLouG3XHdg-70" vertex="1">
          <mxGeometry y="52" width="160" height="8" as="geometry" />
        </mxCell>
        <mxCell id="lrAz5Elh-llLouG3XHdg-73" value="Area&lt;div&gt;Floor&lt;/div&gt;&lt;div&gt;Capacity&lt;/div&gt;" style="text;strokeColor=none;fillColor=none;align=left;verticalAlign=top;spacingLeft=4;spacingRight=4;overflow=hidden;rotatable=0;points=[[0,0.5],[1,0.5]];portConstraint=eastwest;whiteSpace=wrap;html=1;" parent="lrAz5Elh-llLouG3XHdg-70" vertex="1">
          <mxGeometry y="60" width="160" height="60" as="geometry" />
        </mxCell>
        <mxCell id="lrAz5Elh-llLouG3XHdg-74" value="" style="endArrow=none;dashed=1;html=1;rounded=0;" parent="1" edge="1">
          <mxGeometry width="50" height="50" relative="1" as="geometry">
            <mxPoint x="350" y="679" as="sourcePoint" />
            <mxPoint x="220" y="680" as="targetPoint" />
          </mxGeometry>
        </mxCell>
        <mxCell id="lrAz5Elh-llLouG3XHdg-75" value="EQUIPMENT" style="swimlane;fontStyle=1;align=center;verticalAlign=top;childLayout=stackLayout;horizontal=1;startSize=26;horizontalStack=0;resizeParent=1;resizeParentMax=0;resizeLast=0;collapsible=1;marginBottom=0;whiteSpace=wrap;html=1;" parent="1" vertex="1">
          <mxGeometry x="60" y="640" width="160" height="130" as="geometry" />
        </mxCell>
        <mxCell id="lrAz5Elh-llLouG3XHdg-76" value="EquipmentNumber" style="text;strokeColor=none;fillColor=none;align=left;verticalAlign=top;spacingLeft=4;spacingRight=4;overflow=hidden;rotatable=0;points=[[0,0.5],[1,0.5]];portConstraint=eastwest;whiteSpace=wrap;html=1;" parent="lrAz5Elh-llLouG3XHdg-75" vertex="1">
          <mxGeometry y="26" width="160" height="26" as="geometry" />
        </mxCell>
        <mxCell id="lrAz5Elh-llLouG3XHdg-77" value="" style="line;strokeWidth=1;fillColor=none;align=left;verticalAlign=middle;spacingTop=-1;spacingLeft=3;spacingRight=3;rotatable=0;labelPosition=right;points=[];portConstraint=eastwest;strokeColor=inherit;" parent="lrAz5Elh-llLouG3XHdg-75" vertex="1">
          <mxGeometry y="52" width="160" height="8" as="geometry" />
        </mxCell>
        <mxCell id="lrAz5Elh-llLouG3XHdg-80" style="edgeStyle=orthogonalEdgeStyle;rounded=0;orthogonalLoop=1;jettySize=auto;html=1;exitX=1;exitY=0.5;exitDx=0;exitDy=0;" parent="lrAz5Elh-llLouG3XHdg-75" source="lrAz5Elh-llLouG3XHdg-76" target="lrAz5Elh-llLouG3XHdg-76" edge="1">
          <mxGeometry relative="1" as="geometry" />
        </mxCell>
        <mxCell id="lrAz5Elh-llLouG3XHdg-78" value="&lt;div&gt;PurchaseDate&lt;/div&gt;&lt;div&gt;&lt;span style=&quot;white-space-collapse: preserve;&quot; data-src-align=&quot;5:12&quot; class=&quot;aNeGP0gI0B9AV8JaHPyH&quot;&gt;ManufactureDate&lt;/span&gt;&lt;/div&gt;&lt;div&gt;&lt;span style=&quot;white-space-collapse: preserve;&quot; data-src-align=&quot;0:13&quot; class=&quot;aNeGP0gI0B9AV8JaHPyH&quot;&gt;Manufacture&lt;/span&gt;&lt;/div&gt;&lt;div&gt;&lt;span style=&quot;white-space-collapse: preserve;&quot; data-src-align=&quot;0:13&quot; class=&quot;aNeGP0gI0B9AV8JaHPyH&quot;&gt;&lt;span data-src-align=&quot;0:6&quot; class=&quot;aNeGP0gI0B9AV8JaHPyH&quot;&gt;Model&lt;/span&gt;&lt;/span&gt;&lt;/div&gt;" style="text;strokeColor=none;fillColor=none;align=left;verticalAlign=top;spacingLeft=4;spacingRight=4;overflow=hidden;rotatable=0;points=[[0,0.5],[1,0.5]];portConstraint=eastwest;whiteSpace=wrap;html=1;" parent="lrAz5Elh-llLouG3XHdg-75" vertex="1">
          <mxGeometry y="60" width="160" height="70" as="geometry" />
        </mxCell>
        <mxCell id="lrAz5Elh-llLouG3XHdg-81" value="SUBSCRIPTION" style="swimlane;fontStyle=1;align=center;verticalAlign=top;childLayout=stackLayout;horizontal=1;startSize=26;horizontalStack=0;resizeParent=1;resizeParentMax=0;resizeLast=0;collapsible=1;marginBottom=0;whiteSpace=wrap;html=1;rounded=1;" parent="1" vertex="1">
          <mxGeometry x="360" y="294" width="160" height="130" as="geometry" />
        </mxCell>
        <mxCell id="lrAz5Elh-llLouG3XHdg-82" value="PassportNumber&lt;div&gt;StartDate&lt;/div&gt;&lt;div&gt;Type&lt;br&gt;&lt;div&gt;&lt;div&gt;&lt;br&gt;&lt;/div&gt;&lt;div&gt;&lt;br&gt;&lt;/div&gt;&lt;div&gt;&lt;br&gt;&lt;/div&gt;&lt;/div&gt;&lt;/div&gt;" style="text;strokeColor=none;fillColor=none;align=left;verticalAlign=top;spacingLeft=4;spacingRight=4;overflow=hidden;rotatable=0;points=[[0,0.5],[1,0.5]];portConstraint=eastwest;whiteSpace=wrap;html=1;" parent="lrAz5Elh-llLouG3XHdg-81" vertex="1">
          <mxGeometry y="26" width="160" height="54" as="geometry" />
        </mxCell>
        <mxCell id="lrAz5Elh-llLouG3XHdg-83" value="" style="line;strokeWidth=1;fillColor=none;align=left;verticalAlign=middle;spacingTop=-1;spacingLeft=3;spacingRight=3;rotatable=0;labelPosition=right;points=[];portConstraint=eastwest;strokeColor=inherit;" parent="lrAz5Elh-llLouG3XHdg-81" vertex="1">
          <mxGeometry y="80" width="160" height="10" as="geometry" />
        </mxCell>
        <mxCell id="lrAz5Elh-llLouG3XHdg-84" value="EndDate&lt;div&gt;Price&lt;/div&gt;" style="text;strokeColor=none;fillColor=none;align=left;verticalAlign=top;spacingLeft=4;spacingRight=4;overflow=hidden;rotatable=0;points=[[0,0.5],[1,0.5]];portConstraint=eastwest;whiteSpace=wrap;html=1;rounded=0;dashed=1;" parent="lrAz5Elh-llLouG3XHdg-81" vertex="1">
          <mxGeometry y="90" width="160" height="40" as="geometry" />
        </mxCell>
        <mxCell id="lrAz5Elh-llLouG3XHdg-85" value="" style="endArrow=none;html=1;rounded=0;" parent="1" edge="1">
          <mxGeometry relative="1" as="geometry">
            <mxPoint x="540" y="350" as="sourcePoint" />
            <mxPoint x="540" y="350" as="targetPoint" />
            <Array as="points">
              <mxPoint x="520" y="350" />
            </Array>
          </mxGeometry>
        </mxCell>
        <mxCell id="lrAz5Elh-llLouG3XHdg-86" value="" style="resizable=0;html=1;whiteSpace=wrap;align=right;verticalAlign=bottom;" parent="lrAz5Elh-llLouG3XHdg-85" connectable="0" vertex="1">
          <mxGeometry x="1" relative="1" as="geometry">
            <mxPoint y="-100" as="offset" />
          </mxGeometry>
        </mxCell>
        <mxCell id="lrAz5Elh-llLouG3XHdg-92" value="SUBSCRIPTION TYPE&amp;nbsp;" style="swimlane;fontStyle=1;align=center;verticalAlign=top;childLayout=stackLayout;horizontal=1;startSize=26;horizontalStack=0;resizeParent=1;resizeParentMax=0;resizeLast=0;collapsible=1;marginBottom=0;whiteSpace=wrap;html=1;" parent="1" vertex="1">
          <mxGeometry x="70" y="304" width="160" height="120" as="geometry" />
        </mxCell>
        <mxCell id="lrAz5Elh-llLouG3XHdg-93" value="Type" style="text;strokeColor=none;fillColor=none;align=left;verticalAlign=top;spacingLeft=4;spacingRight=4;overflow=hidden;rotatable=0;points=[[0,0.5],[1,0.5]];portConstraint=eastwest;whiteSpace=wrap;html=1;" parent="lrAz5Elh-llLouG3XHdg-92" vertex="1">
          <mxGeometry y="26" width="160" height="26" as="geometry" />
        </mxCell>
        <mxCell id="lrAz5Elh-llLouG3XHdg-94" value="" style="line;strokeWidth=1;fillColor=none;align=left;verticalAlign=middle;spacingTop=-1;spacingLeft=3;spacingRight=3;rotatable=0;labelPosition=right;points=[];portConstraint=eastwest;strokeColor=inherit;" parent="lrAz5Elh-llLouG3XHdg-92" vertex="1">
          <mxGeometry y="52" width="160" height="8" as="geometry" />
        </mxCell>
        <mxCell id="lrAz5Elh-llLouG3XHdg-95" value="GroupTraining&lt;div&gt;PersonalTraining&lt;/div&gt;&lt;div&gt;Price&lt;/div&gt;" style="text;strokeColor=none;fillColor=none;align=left;verticalAlign=top;spacingLeft=4;spacingRight=4;overflow=hidden;rotatable=0;points=[[0,0.5],[1,0.5]];portConstraint=eastwest;whiteSpace=wrap;html=1;" parent="lrAz5Elh-llLouG3XHdg-92" vertex="1">
          <mxGeometry y="60" width="160" height="60" as="geometry" />
        </mxCell>
        <mxCell id="lrAz5Elh-llLouG3XHdg-98" value="" style="endArrow=none;dashed=1;html=1;rounded=0;" parent="1" source="lrAz5Elh-llLouG3XHdg-200" edge="1">
          <mxGeometry width="50" height="50" relative="1" as="geometry">
            <mxPoint x="360" y="360" as="sourcePoint" />
            <mxPoint x="230" y="360" as="targetPoint" />
          </mxGeometry>
        </mxCell>
        <mxCell id="lrAz5Elh-llLouG3XHdg-99" value="" style="endArrow=none;html=1;rounded=0;" parent="1" edge="1">
          <mxGeometry relative="1" as="geometry">
            <mxPoint x="790" y="396" as="sourcePoint" />
            <mxPoint x="800" y="420" as="targetPoint" />
          </mxGeometry>
        </mxCell>
        <mxCell id="lrAz5Elh-llLouG3XHdg-100" value="" style="resizable=0;html=1;whiteSpace=wrap;align=right;verticalAlign=bottom;" parent="lrAz5Elh-llLouG3XHdg-99" connectable="0" vertex="1">
          <mxGeometry x="1" relative="1" as="geometry" />
        </mxCell>
        <mxCell id="lrAz5Elh-llLouG3XHdg-101" value="" style="endArrow=none;html=1;rounded=0;" parent="1" edge="1">
          <mxGeometry relative="1" as="geometry">
            <mxPoint x="810" y="396" as="sourcePoint" />
            <mxPoint x="800" y="420" as="targetPoint" />
          </mxGeometry>
        </mxCell>
        <mxCell id="lrAz5Elh-llLouG3XHdg-102" value="" style="resizable=0;html=1;whiteSpace=wrap;align=right;verticalAlign=bottom;" parent="lrAz5Elh-llLouG3XHdg-101" connectable="0" vertex="1">
          <mxGeometry x="1" relative="1" as="geometry" />
        </mxCell>
        <mxCell id="lrAz5Elh-llLouG3XHdg-103" value="" style="endArrow=none;html=1;rounded=0;" parent="1" edge="1">
          <mxGeometry relative="1" as="geometry">
            <mxPoint x="800" y="396" as="sourcePoint" />
            <mxPoint x="800" y="420" as="targetPoint" />
          </mxGeometry>
        </mxCell>
        <mxCell id="lrAz5Elh-llLouG3XHdg-104" value="" style="resizable=0;html=1;whiteSpace=wrap;align=right;verticalAlign=bottom;" parent="lrAz5Elh-llLouG3XHdg-103" connectable="0" vertex="1">
          <mxGeometry x="1" relative="1" as="geometry" />
        </mxCell>
        <mxCell id="lrAz5Elh-llLouG3XHdg-113" value="" style="endArrow=none;dashed=1;html=1;rounded=0;" parent="1" target="lrAz5Elh-llLouG3XHdg-112" edge="1">
          <mxGeometry width="50" height="50" relative="1" as="geometry">
            <mxPoint x="800" y="640" as="sourcePoint" />
            <mxPoint x="800" y="399" as="targetPoint" />
          </mxGeometry>
        </mxCell>
        <mxCell id="lrAz5Elh-llLouG3XHdg-112" value="" style="verticalLabelPosition=bottom;verticalAlign=top;html=1;shape=mxgraph.flowchart.on-page_reference;" parent="1" vertex="1">
          <mxGeometry x="790" y="420" width="20" height="20" as="geometry" />
        </mxCell>
        <mxCell id="lrAz5Elh-llLouG3XHdg-116" value="" style="verticalLabelPosition=bottom;verticalAlign=top;html=1;shape=mxgraph.flowchart.on-page_reference;" parent="1" vertex="1">
          <mxGeometry x="790" y="590" width="20" height="20" as="geometry" />
        </mxCell>
        <mxCell id="lrAz5Elh-llLouG3XHdg-117" value="" style="endArrow=none;html=1;rounded=0;exitX=0.5;exitY=1;exitDx=0;exitDy=0;exitPerimeter=0;" parent="1" source="lrAz5Elh-llLouG3XHdg-116" edge="1">
          <mxGeometry relative="1" as="geometry">
            <mxPoint x="800" y="616" as="sourcePoint" />
            <mxPoint x="790" y="640" as="targetPoint" />
          </mxGeometry>
        </mxCell>
        <mxCell id="lrAz5Elh-llLouG3XHdg-118" value="" style="resizable=0;html=1;whiteSpace=wrap;align=right;verticalAlign=bottom;" parent="lrAz5Elh-llLouG3XHdg-117" connectable="0" vertex="1">
          <mxGeometry x="1" relative="1" as="geometry" />
        </mxCell>
        <mxCell id="lrAz5Elh-llLouG3XHdg-119" value="" style="endArrow=none;html=1;rounded=0;exitX=0.5;exitY=1;exitDx=0;exitDy=0;exitPerimeter=0;entryX=0.281;entryY=0;entryDx=0;entryDy=0;entryPerimeter=0;" parent="1" edge="1">
          <mxGeometry relative="1" as="geometry">
            <mxPoint x="800.04" y="610" as="sourcePoint" />
            <mxPoint x="809.9999999999999" y="640" as="targetPoint" />
          </mxGeometry>
        </mxCell>
        <mxCell id="lrAz5Elh-llLouG3XHdg-120" value="" style="resizable=0;html=1;whiteSpace=wrap;align=right;verticalAlign=bottom;" parent="lrAz5Elh-llLouG3XHdg-119" connectable="0" vertex="1">
          <mxGeometry x="1" relative="1" as="geometry" />
        </mxCell>
        <mxCell id="lrAz5Elh-llLouG3XHdg-121" value="" style="endArrow=none;html=1;rounded=0;exitX=0.5;exitY=1;exitDx=0;exitDy=0;exitPerimeter=0;" parent="1" edge="1">
          <mxGeometry relative="1" as="geometry">
            <mxPoint x="799.9699999999999" y="610" as="sourcePoint" />
            <mxPoint x="799.93" y="640" as="targetPoint" />
          </mxGeometry>
        </mxCell>
        <mxCell id="lrAz5Elh-llLouG3XHdg-122" value="" style="resizable=0;html=1;whiteSpace=wrap;align=right;verticalAlign=bottom;" parent="lrAz5Elh-llLouG3XHdg-121" connectable="0" vertex="1">
          <mxGeometry x="1" relative="1" as="geometry" />
        </mxCell>
        <mxCell id="lrAz5Elh-llLouG3XHdg-124" value="" style="endArrow=none;dashed=1;html=1;rounded=0;" parent="1" target="lrAz5Elh-llLouG3XHdg-123" edge="1">
          <mxGeometry width="50" height="50" relative="1" as="geometry">
            <mxPoint x="930" y="640" as="sourcePoint" />
            <mxPoint x="930" y="540" as="targetPoint" />
          </mxGeometry>
        </mxCell>
        <mxCell id="lrAz5Elh-llLouG3XHdg-123" value="" style="verticalLabelPosition=bottom;verticalAlign=top;html=1;shape=mxgraph.flowchart.on-page_reference;" parent="1" vertex="1">
          <mxGeometry x="920" y="590" width="20" height="20" as="geometry" />
        </mxCell>
        <mxCell id="lrAz5Elh-llLouG3XHdg-125" value="" style="endArrow=none;html=1;rounded=0;exitX=0.5;exitY=1;exitDx=0;exitDy=0;exitPerimeter=0;entryX=0.281;entryY=0;entryDx=0;entryDy=0;entryPerimeter=0;" parent="1" edge="1">
          <mxGeometry relative="1" as="geometry">
            <mxPoint x="930.04" y="610" as="sourcePoint" />
            <mxPoint x="939.9999999999999" y="640" as="targetPoint" />
          </mxGeometry>
        </mxCell>
        <mxCell id="lrAz5Elh-llLouG3XHdg-126" value="" style="resizable=0;html=1;whiteSpace=wrap;align=right;verticalAlign=bottom;" parent="lrAz5Elh-llLouG3XHdg-125" connectable="0" vertex="1">
          <mxGeometry x="1" relative="1" as="geometry" />
        </mxCell>
        <mxCell id="lrAz5Elh-llLouG3XHdg-127" value="" style="endArrow=none;html=1;rounded=0;exitX=0.5;exitY=1;exitDx=0;exitDy=0;exitPerimeter=0;" parent="1" edge="1">
          <mxGeometry relative="1" as="geometry">
            <mxPoint x="930" y="610" as="sourcePoint" />
            <mxPoint x="920" y="640" as="targetPoint" />
          </mxGeometry>
        </mxCell>
        <mxCell id="lrAz5Elh-llLouG3XHdg-128" value="" style="resizable=0;html=1;whiteSpace=wrap;align=right;verticalAlign=bottom;" parent="lrAz5Elh-llLouG3XHdg-127" connectable="0" vertex="1">
          <mxGeometry x="1" relative="1" as="geometry" />
        </mxCell>
        <mxCell id="lrAz5Elh-llLouG3XHdg-129" value="" style="endArrow=none;html=1;rounded=0;" parent="1" edge="1">
          <mxGeometry relative="1" as="geometry">
            <mxPoint x="929.92" y="610" as="sourcePoint" />
            <mxPoint x="929.92" y="640" as="targetPoint" />
          </mxGeometry>
        </mxCell>
        <mxCell id="lrAz5Elh-llLouG3XHdg-130" value="" style="resizable=0;html=1;whiteSpace=wrap;align=right;verticalAlign=bottom;" parent="lrAz5Elh-llLouG3XHdg-129" connectable="0" vertex="1">
          <mxGeometry x="1" relative="1" as="geometry" />
        </mxCell>
        <mxCell id="lrAz5Elh-llLouG3XHdg-135" value="" style="endArrow=none;html=1;rounded=0;entryX=0.529;entryY=-0.067;entryDx=0;entryDy=0;entryPerimeter=0;" parent="1" target="lrAz5Elh-llLouG3XHdg-141" edge="1">
          <mxGeometry relative="1" as="geometry">
            <mxPoint x="980" y="450" as="sourcePoint" />
            <mxPoint x="970" y="474" as="targetPoint" />
          </mxGeometry>
        </mxCell>
        <mxCell id="lrAz5Elh-llLouG3XHdg-136" value="" style="resizable=0;html=1;whiteSpace=wrap;align=right;verticalAlign=bottom;" parent="lrAz5Elh-llLouG3XHdg-135" connectable="0" vertex="1">
          <mxGeometry x="1" relative="1" as="geometry" />
        </mxCell>
        <mxCell id="lrAz5Elh-llLouG3XHdg-137" value="" style="endArrow=none;html=1;rounded=0;entryX=0.5;entryY=0;entryDx=0;entryDy=0;entryPerimeter=0;" parent="1" target="lrAz5Elh-llLouG3XHdg-141" edge="1">
          <mxGeometry relative="1" as="geometry">
            <mxPoint x="960" y="450" as="sourcePoint" />
            <mxPoint x="970" y="474" as="targetPoint" />
          </mxGeometry>
        </mxCell>
        <mxCell id="lrAz5Elh-llLouG3XHdg-138" value="" style="resizable=0;html=1;whiteSpace=wrap;align=right;verticalAlign=bottom;" parent="lrAz5Elh-llLouG3XHdg-137" connectable="0" vertex="1">
          <mxGeometry x="1" relative="1" as="geometry" />
        </mxCell>
        <mxCell id="lrAz5Elh-llLouG3XHdg-139" value="" style="endArrow=none;html=1;rounded=0;" parent="1" edge="1">
          <mxGeometry relative="1" as="geometry">
            <mxPoint x="969.84" y="450" as="sourcePoint" />
            <mxPoint x="969.84" y="474" as="targetPoint" />
          </mxGeometry>
        </mxCell>
        <mxCell id="lrAz5Elh-llLouG3XHdg-140" value="" style="resizable=0;html=1;whiteSpace=wrap;align=right;verticalAlign=bottom;" parent="lrAz5Elh-llLouG3XHdg-139" connectable="0" vertex="1">
          <mxGeometry x="1" relative="1" as="geometry" />
        </mxCell>
        <mxCell id="lrAz5Elh-llLouG3XHdg-142" value="" style="endArrow=none;dashed=1;html=1;rounded=0;" parent="1" target="lrAz5Elh-llLouG3XHdg-141" edge="1">
          <mxGeometry width="50" height="50" relative="1" as="geometry">
            <mxPoint x="970" y="540" as="sourcePoint" />
            <mxPoint x="970" y="450" as="targetPoint" />
          </mxGeometry>
        </mxCell>
        <mxCell id="lrAz5Elh-llLouG3XHdg-141" value="" style="verticalLabelPosition=bottom;verticalAlign=top;html=1;shape=mxgraph.flowchart.on-page_reference;" parent="1" vertex="1">
          <mxGeometry x="960" y="470" width="20" height="20" as="geometry" />
        </mxCell>
        <mxCell id="lrAz5Elh-llLouG3XHdg-148" value="" style="endArrow=none;html=1;rounded=0;" parent="1" edge="1">
          <mxGeometry relative="1" as="geometry">
            <mxPoint x="530" y="710" as="sourcePoint" />
            <mxPoint x="530" y="730" as="targetPoint" />
          </mxGeometry>
        </mxCell>
        <mxCell id="lrAz5Elh-llLouG3XHdg-149" value="" style="resizable=0;html=1;whiteSpace=wrap;align=right;verticalAlign=bottom;" parent="lrAz5Elh-llLouG3XHdg-148" connectable="0" vertex="1">
          <mxGeometry x="1" relative="1" as="geometry" />
        </mxCell>
        <mxCell id="lrAz5Elh-llLouG3XHdg-150" value="" style="endArrow=none;html=1;rounded=0;" parent="1" edge="1">
          <mxGeometry relative="1" as="geometry">
            <mxPoint x="540" y="710" as="sourcePoint" />
            <mxPoint x="540" y="730" as="targetPoint" />
          </mxGeometry>
        </mxCell>
        <mxCell id="lrAz5Elh-llLouG3XHdg-151" value="" style="resizable=0;html=1;whiteSpace=wrap;align=right;verticalAlign=bottom;" parent="lrAz5Elh-llLouG3XHdg-150" connectable="0" vertex="1">
          <mxGeometry x="1" relative="1" as="geometry" />
        </mxCell>
        <mxCell id="lrAz5Elh-llLouG3XHdg-153" value="" style="endArrow=none;dashed=1;html=1;rounded=0;" parent="1" target="lrAz5Elh-llLouG3XHdg-152" edge="1">
          <mxGeometry width="50" height="50" relative="1" as="geometry">
            <mxPoint x="510" y="720" as="sourcePoint" />
            <mxPoint x="785" y="720" as="targetPoint" />
          </mxGeometry>
        </mxCell>
        <mxCell id="lrAz5Elh-llLouG3XHdg-152" value="" style="verticalLabelPosition=bottom;verticalAlign=top;html=1;shape=mxgraph.flowchart.on-page_reference;" parent="1" vertex="1">
          <mxGeometry x="740" y="708" width="20" height="20" as="geometry" />
        </mxCell>
        <mxCell id="lrAz5Elh-llLouG3XHdg-154" value="" style="endArrow=none;html=1;rounded=0;exitX=0.002;exitY=0.739;exitDx=0;exitDy=0;exitPerimeter=0;" parent="1" source="lrAz5Elh-llLouG3XHdg-56" edge="1">
          <mxGeometry relative="1" as="geometry">
            <mxPoint x="780.23" y="708" as="sourcePoint" />
            <mxPoint x="760" y="718" as="targetPoint" />
          </mxGeometry>
        </mxCell>
        <mxCell id="lrAz5Elh-llLouG3XHdg-155" value="" style="resizable=0;html=1;whiteSpace=wrap;align=right;verticalAlign=bottom;" parent="lrAz5Elh-llLouG3XHdg-154" connectable="0" vertex="1">
          <mxGeometry x="1" relative="1" as="geometry" />
        </mxCell>
        <mxCell id="lrAz5Elh-llLouG3XHdg-160" value="" style="endArrow=none;html=1;rounded=0;exitX=1;exitY=0.5;exitDx=0;exitDy=0;exitPerimeter=0;entryX=0.003;entryY=0.105;entryDx=0;entryDy=0;entryPerimeter=0;" parent="1" edge="1">
          <mxGeometry relative="1" as="geometry">
            <mxPoint x="759.5200000000001" y="718" as="sourcePoint" />
            <mxPoint x="785.0000000000001" y="731.36" as="targetPoint" />
          </mxGeometry>
        </mxCell>
        <mxCell id="lrAz5Elh-llLouG3XHdg-161" value="" style="resizable=0;html=1;whiteSpace=wrap;align=right;verticalAlign=bottom;" parent="lrAz5Elh-llLouG3XHdg-160" connectable="0" vertex="1">
          <mxGeometry x="1" relative="1" as="geometry" />
        </mxCell>
        <mxCell id="lrAz5Elh-llLouG3XHdg-162" value="" style="endArrow=none;dashed=1;html=1;rounded=0;entryX=0.002;entryY=0.965;entryDx=0;entryDy=0;entryPerimeter=0;" parent="1" target="lrAz5Elh-llLouG3XHdg-56" edge="1">
          <mxGeometry width="50" height="50" relative="1" as="geometry">
            <mxPoint x="760" y="717.92" as="sourcePoint" />
            <mxPoint x="780" y="718" as="targetPoint" />
          </mxGeometry>
        </mxCell>
        <mxCell id="lrAz5Elh-llLouG3XHdg-163" value="" style="endArrow=none;html=1;rounded=0;" parent="1" edge="1">
          <mxGeometry relative="1" as="geometry">
            <mxPoint x="785" y="717.92" as="sourcePoint" />
            <mxPoint x="760" y="718" as="targetPoint" />
          </mxGeometry>
        </mxCell>
        <mxCell id="lrAz5Elh-llLouG3XHdg-164" value="" style="resizable=0;html=1;whiteSpace=wrap;align=right;verticalAlign=bottom;" parent="lrAz5Elh-llLouG3XHdg-163" connectable="0" vertex="1">
          <mxGeometry x="1" relative="1" as="geometry" />
        </mxCell>
        <mxCell id="lrAz5Elh-llLouG3XHdg-166" value="" style="endArrow=none;html=1;rounded=0;" parent="1" edge="1">
          <mxGeometry relative="1" as="geometry">
            <mxPoint x="530" y="710" as="sourcePoint" />
            <mxPoint x="530" y="730" as="targetPoint" />
          </mxGeometry>
        </mxCell>
        <mxCell id="lrAz5Elh-llLouG3XHdg-167" value="" style="resizable=0;html=1;whiteSpace=wrap;align=right;verticalAlign=bottom;" parent="lrAz5Elh-llLouG3XHdg-166" connectable="0" vertex="1">
          <mxGeometry x="1" relative="1" as="geometry" />
        </mxCell>
        <mxCell id="lrAz5Elh-llLouG3XHdg-172" value="" style="endArrow=none;html=1;rounded=0;" parent="1" edge="1">
          <mxGeometry relative="1" as="geometry">
            <mxPoint x="330" y="670" as="sourcePoint" />
            <mxPoint x="330" y="690" as="targetPoint" />
            <Array as="points">
              <mxPoint x="330" y="680" />
            </Array>
          </mxGeometry>
        </mxCell>
        <mxCell id="lrAz5Elh-llLouG3XHdg-173" value="" style="resizable=0;html=1;whiteSpace=wrap;align=right;verticalAlign=bottom;" parent="lrAz5Elh-llLouG3XHdg-172" connectable="0" vertex="1">
          <mxGeometry x="1" relative="1" as="geometry" />
        </mxCell>
        <mxCell id="lrAz5Elh-llLouG3XHdg-174" value="" style="endArrow=none;html=1;rounded=0;" parent="1" edge="1">
          <mxGeometry relative="1" as="geometry">
            <mxPoint x="340" y="670" as="sourcePoint" />
            <mxPoint x="340" y="690" as="targetPoint" />
          </mxGeometry>
        </mxCell>
        <mxCell id="lrAz5Elh-llLouG3XHdg-175" value="" style="resizable=0;html=1;whiteSpace=wrap;align=right;verticalAlign=bottom;" parent="lrAz5Elh-llLouG3XHdg-174" connectable="0" vertex="1">
          <mxGeometry x="1" relative="1" as="geometry" />
        </mxCell>
        <mxCell id="lrAz5Elh-llLouG3XHdg-176" value="" style="verticalLabelPosition=bottom;verticalAlign=top;html=1;shape=mxgraph.flowchart.on-page_reference;" parent="1" vertex="1">
          <mxGeometry x="240" y="670" width="20" height="20" as="geometry" />
        </mxCell>
        <mxCell id="lrAz5Elh-llLouG3XHdg-177" value="" style="endArrow=none;html=1;rounded=0;entryX=0;entryY=0.5;entryDx=0;entryDy=0;entryPerimeter=0;exitX=1.003;exitY=0.174;exitDx=0;exitDy=0;exitPerimeter=0;" parent="1" source="lrAz5Elh-llLouG3XHdg-76" target="lrAz5Elh-llLouG3XHdg-176" edge="1">
          <mxGeometry width="50" height="50" relative="1" as="geometry">
            <mxPoint x="240" y="650" as="sourcePoint" />
            <mxPoint x="290" y="600" as="targetPoint" />
          </mxGeometry>
        </mxCell>
        <mxCell id="lrAz5Elh-llLouG3XHdg-178" value="" style="endArrow=none;html=1;rounded=0;entryX=0;entryY=0.5;entryDx=0;entryDy=0;entryPerimeter=0;" parent="1" edge="1">
          <mxGeometry width="50" height="50" relative="1" as="geometry">
            <mxPoint x="220" y="690" as="sourcePoint" />
            <mxPoint x="240" y="679" as="targetPoint" />
          </mxGeometry>
        </mxCell>
        <mxCell id="lrAz5Elh-llLouG3XHdg-179" value="" style="endArrow=none;html=1;rounded=0;" parent="1" edge="1">
          <mxGeometry width="50" height="50" relative="1" as="geometry">
            <mxPoint x="220" y="679.89" as="sourcePoint" />
            <mxPoint x="230" y="679.89" as="targetPoint" />
            <Array as="points">
              <mxPoint x="240" y="679.89" />
            </Array>
          </mxGeometry>
        </mxCell>
        <mxCell id="lrAz5Elh-llLouG3XHdg-181" value="" style="endArrow=none;html=1;rounded=0;" parent="1" edge="1">
          <mxGeometry relative="1" as="geometry">
            <mxPoint x="660" y="340" as="sourcePoint" />
            <mxPoint x="660" y="360" as="targetPoint" />
          </mxGeometry>
        </mxCell>
        <mxCell id="lrAz5Elh-llLouG3XHdg-182" value="" style="resizable=0;html=1;whiteSpace=wrap;align=right;verticalAlign=bottom;" parent="lrAz5Elh-llLouG3XHdg-181" connectable="0" vertex="1">
          <mxGeometry x="1" relative="1" as="geometry" />
        </mxCell>
        <mxCell id="lrAz5Elh-llLouG3XHdg-187" value="" style="endArrow=none;html=1;rounded=0;" parent="1" edge="1">
          <mxGeometry relative="1" as="geometry">
            <mxPoint x="650" y="340" as="sourcePoint" />
            <mxPoint x="650" y="360" as="targetPoint" />
          </mxGeometry>
        </mxCell>
        <mxCell id="lrAz5Elh-llLouG3XHdg-188" value="" style="resizable=0;html=1;whiteSpace=wrap;align=right;verticalAlign=bottom;" parent="lrAz5Elh-llLouG3XHdg-187" connectable="0" vertex="1">
          <mxGeometry x="1" relative="1" as="geometry" />
        </mxCell>
        <mxCell id="lrAz5Elh-llLouG3XHdg-191" value="" style="endArrow=none;html=1;rounded=0;" parent="1" target="lrAz5Elh-llLouG3XHdg-190" edge="1">
          <mxGeometry width="50" height="50" relative="1" as="geometry">
            <mxPoint x="540" y="350" as="sourcePoint" />
            <mxPoint x="670" y="350" as="targetPoint" />
          </mxGeometry>
        </mxCell>
        <mxCell id="lrAz5Elh-llLouG3XHdg-190" value="" style="verticalLabelPosition=bottom;verticalAlign=top;html=1;shape=mxgraph.flowchart.on-page_reference;" parent="1" vertex="1">
          <mxGeometry x="540" y="339" width="20" height="20" as="geometry" />
        </mxCell>
        <mxCell id="lrAz5Elh-llLouG3XHdg-192" value="" style="endArrow=none;html=1;rounded=0;exitX=0.002;exitY=0.739;exitDx=0;exitDy=0;exitPerimeter=0;" parent="1" edge="1">
          <mxGeometry relative="1" as="geometry">
            <mxPoint x="540" y="350" as="sourcePoint" />
            <mxPoint x="520" y="360" as="targetPoint" />
          </mxGeometry>
        </mxCell>
        <mxCell id="lrAz5Elh-llLouG3XHdg-193" value="" style="resizable=0;html=1;whiteSpace=wrap;align=right;verticalAlign=bottom;" parent="lrAz5Elh-llLouG3XHdg-192" connectable="0" vertex="1">
          <mxGeometry x="1" relative="1" as="geometry" />
        </mxCell>
        <mxCell id="lrAz5Elh-llLouG3XHdg-194" value="" style="endArrow=none;html=1;rounded=0;" parent="1" edge="1">
          <mxGeometry relative="1" as="geometry">
            <mxPoint x="540" y="350" as="sourcePoint" />
            <mxPoint x="520" y="339" as="targetPoint" />
          </mxGeometry>
        </mxCell>
        <mxCell id="lrAz5Elh-llLouG3XHdg-195" value="" style="resizable=0;html=1;whiteSpace=wrap;align=right;verticalAlign=bottom;" parent="lrAz5Elh-llLouG3XHdg-194" connectable="0" vertex="1">
          <mxGeometry x="1" relative="1" as="geometry" />
        </mxCell>
        <mxCell id="lrAz5Elh-llLouG3XHdg-196" value="" style="endArrow=none;html=1;rounded=0;" parent="1" edge="1">
          <mxGeometry relative="1" as="geometry">
            <mxPoint x="240" y="350" as="sourcePoint" />
            <mxPoint x="240" y="370" as="targetPoint" />
            <Array as="points">
              <mxPoint x="240" y="360" />
            </Array>
          </mxGeometry>
        </mxCell>
        <mxCell id="lrAz5Elh-llLouG3XHdg-197" value="" style="resizable=0;html=1;whiteSpace=wrap;align=right;verticalAlign=bottom;" parent="lrAz5Elh-llLouG3XHdg-196" connectable="0" vertex="1">
          <mxGeometry x="1" relative="1" as="geometry" />
        </mxCell>
        <mxCell id="lrAz5Elh-llLouG3XHdg-198" value="" style="endArrow=none;html=1;rounded=0;" parent="1" edge="1">
          <mxGeometry relative="1" as="geometry">
            <mxPoint x="249.76" y="350" as="sourcePoint" />
            <mxPoint x="249.76" y="370" as="targetPoint" />
            <Array as="points">
              <mxPoint x="249.76" y="360" />
            </Array>
          </mxGeometry>
        </mxCell>
        <mxCell id="lrAz5Elh-llLouG3XHdg-199" value="" style="resizable=0;html=1;whiteSpace=wrap;align=right;verticalAlign=bottom;" parent="lrAz5Elh-llLouG3XHdg-198" connectable="0" vertex="1">
          <mxGeometry x="1" relative="1" as="geometry" />
        </mxCell>
        <mxCell id="lrAz5Elh-llLouG3XHdg-201" value="" style="endArrow=none;dashed=1;html=1;rounded=0;" parent="1" target="lrAz5Elh-llLouG3XHdg-200" edge="1">
          <mxGeometry width="50" height="50" relative="1" as="geometry">
            <mxPoint x="360" y="360" as="sourcePoint" />
            <mxPoint x="230" y="360" as="targetPoint" />
          </mxGeometry>
        </mxCell>
        <mxCell id="lrAz5Elh-llLouG3XHdg-200" value="" style="verticalLabelPosition=bottom;verticalAlign=top;html=1;shape=mxgraph.flowchart.on-page_reference;" parent="1" vertex="1">
          <mxGeometry x="320" y="350" width="20" height="20" as="geometry" />
        </mxCell>
        <mxCell id="lrAz5Elh-llLouG3XHdg-204" value="" style="endArrow=none;html=1;rounded=0;exitX=0.002;exitY=0.739;exitDx=0;exitDy=0;exitPerimeter=0;entryX=0.997;entryY=0.808;entryDx=0;entryDy=0;entryPerimeter=0;" parent="1" edge="1">
          <mxGeometry relative="1" as="geometry">
            <mxPoint x="360" y="347" as="sourcePoint" />
            <mxPoint x="340" y="361" as="targetPoint" />
          </mxGeometry>
        </mxCell>
        <mxCell id="lrAz5Elh-llLouG3XHdg-205" value="" style="resizable=0;html=1;whiteSpace=wrap;align=right;verticalAlign=bottom;" parent="lrAz5Elh-llLouG3XHdg-204" connectable="0" vertex="1">
          <mxGeometry x="1" relative="1" as="geometry" />
        </mxCell>
        <mxCell id="lrAz5Elh-llLouG3XHdg-206" value="" style="endArrow=none;html=1;rounded=0;" parent="1" edge="1">
          <mxGeometry relative="1" as="geometry">
            <mxPoint x="360" y="371" as="sourcePoint" />
            <mxPoint x="340" y="360" as="targetPoint" />
          </mxGeometry>
        </mxCell>
        <mxCell id="lrAz5Elh-llLouG3XHdg-207" value="" style="resizable=0;html=1;whiteSpace=wrap;align=right;verticalAlign=bottom;" parent="lrAz5Elh-llLouG3XHdg-206" connectable="0" vertex="1">
          <mxGeometry x="1" relative="1" as="geometry" />
        </mxCell>
        <mxCell id="lrAz5Elh-llLouG3XHdg-208" value="" style="endArrow=none;html=1;rounded=0;" parent="1" edge="1">
          <mxGeometry relative="1" as="geometry">
            <mxPoint x="360" y="359.89" as="sourcePoint" />
            <mxPoint x="360" y="359.89" as="targetPoint" />
            <Array as="points">
              <mxPoint x="340" y="359.89" />
            </Array>
          </mxGeometry>
        </mxCell>
        <mxCell id="lrAz5Elh-llLouG3XHdg-209" value="" style="resizable=0;html=1;whiteSpace=wrap;align=right;verticalAlign=bottom;" parent="lrAz5Elh-llLouG3XHdg-208" connectable="0" vertex="1">
          <mxGeometry x="1" relative="1" as="geometry">
            <mxPoint y="-100" as="offset" />
          </mxGeometry>
        </mxCell>
      </root>
    </mxGraphModel>
  </diagram>
</mxfile>
